<svg width="132" height="137" viewBox="0 0 132 137" fill="none" xmlns="http://www.w3.org/2000/svg">
<g clip-path="url(#clip0_16453_912)">
<path d="M27.8 83.9237C19.0016 87.4056 8.90021 84.016 4.39939 76.2969C0.179505 69.0679 1.84116 59.6943 8.51169 54.0333C6.65877 52.6728 1.56621 48.5568 0.287094 41.8351C-1.59572 31.9196 6.00725 22.4596 14.5188 18.6549C23.1139 14.8098 31.4461 17.2598 33.8131 18.0438C34.2434 15.7206 35.6541 10.025 40.7705 5.54001C47.7698 -0.605249 58.3195 -1.50455 66.3827 2.17914C73.0772 5.24024 76.3108 10.6649 77.4525 12.8555C78.4447 11.7602 84.8881 4.85976 94.2125 5.22871C104.147 5.62648 113.369 14.118 115.085 25.9704C122.281 26.5815 128.474 30.9915 130.9 37.2578C133.74 44.5849 130.942 53.1859 123.943 57.9995C128.808 62.8765 131.373 69.3619 129.633 74.775C126.991 83.0014 114.356 88.8987 101.17 83.9237C95.5812 90.8645 86.5139 94.0985 78.086 92.1616C67.7097 89.775 63.3941 80.73 62.904 79.6578C60.2262 87.2096 53.1552 92.421 45.1936 92.7726C34.2733 93.2569 28.0571 84.3157 27.8 83.9295V83.9237Z" fill="#1F5E27"/>
<path d="M76.9801 137H54.8406C47.5903 137 41.7147 131.333 41.7147 124.341L44.5658 111.393C46.6459 101.933 46.622 92.1558 44.4941 82.7073L41.7147 70.3534C40.3519 66.9061 41.2844 63.4529 43.6215 61.9714C43.7888 61.8676 46.0004 60.5014 47.8951 61.3834C50.0529 62.3865 49.4014 65.2054 51.4037 69.1831C53.1909 72.74 56.3289 75.6916 57.357 75.2189C58.7078 74.602 56.054 68.2262 58.1221 62.1213C58.403 61.2854 58.9051 60.0748 60.1065 59.3254C62.0909 58.0859 64.6791 58.9276 64.9899 59.0314C70.8714 61.0202 69.5504 72.838 73.2324 73.6047C77.3028 74.4521 82.1085 60.6513 86.2626 61.4064C88.5101 61.8157 89.562 66.295 90.106 70.3592L87.4342 80.9779C84.8281 91.343 84.7683 102.152 87.2668 112.54L90.106 124.341C90.106 131.333 84.2304 137 76.9801 137Z" fill="#8BCF67"/>
<path d="M22.4085 42.8381C26.624 42.8381 30.0413 39.5422 30.0413 35.4765C30.0413 31.4107 26.624 28.1148 22.4085 28.1148C18.193 28.1148 14.7756 31.4107 14.7756 35.4765C14.7756 39.5422 18.193 42.8381 22.4085 42.8381Z" fill="#8BCF67"/>
<path d="M57.8113 14.7232C60.34 14.7232 62.3898 12.7462 62.3898 10.3074C62.3898 7.86863 60.34 5.8916 57.8113 5.8916C55.2827 5.8916 53.2328 7.86863 53.2328 10.3074C53.2328 12.7462 55.2827 14.7232 57.8113 14.7232Z" fill="#8BCF67"/>
<path d="M108.402 41.2182C111.647 41.2182 114.278 38.6811 114.278 35.5514C114.278 32.4217 111.647 29.8846 108.402 29.8846C105.157 29.8846 102.527 32.4217 102.527 35.5514C102.527 38.6811 105.157 41.2182 108.402 41.2182Z" fill="#8BCF67"/>
<path d="M119.771 48.4299C121.035 48.4299 122.06 47.4414 122.06 46.222C122.06 45.0026 121.035 44.0141 119.771 44.0141C118.506 44.0141 117.481 45.0026 117.481 46.222C117.481 47.4414 118.506 48.4299 119.771 48.4299Z" fill="#8BCF67"/>
<path d="M55.1455 98.474C57.6312 98.474 59.6463 96.5305 59.6463 94.1331C59.6463 91.7357 57.6312 89.7922 55.1455 89.7922C52.6597 89.7922 50.6447 91.7357 50.6447 94.1331C50.6447 96.5305 52.6597 98.474 55.1455 98.474Z" fill="#18361C"/>
<path d="M76.3346 98.474C78.8203 98.474 80.8354 96.5305 80.8354 94.1331C80.8354 91.7357 78.8203 89.7922 76.3346 89.7922C73.8488 89.7922 71.8337 91.7357 71.8337 94.1331C71.8337 96.5305 73.8488 98.474 76.3346 98.474Z" fill="#18361C"/>
<path d="M56.7055 94.4271C57.4021 94.4271 57.9667 93.8825 57.9667 93.2107C57.9667 92.5389 57.4021 91.9944 56.7055 91.9944C56.009 91.9944 55.4443 92.5389 55.4443 93.2107C55.4443 93.8825 56.009 94.4271 56.7055 94.4271Z" fill="white"/>
<path d="M77.8468 94.4271C78.5433 94.4271 79.1079 93.8825 79.1079 93.2107C79.1079 92.5389 78.5433 91.9944 77.8468 91.9944C77.1502 91.9944 76.5856 92.5389 76.5856 93.2107C76.5856 93.8825 77.1502 94.4271 77.8468 94.4271Z" fill="white"/>
<path d="M61.6068 99.0101C63.9559 100.976 67.321 100.976 69.6641 99.0101C70.5367 98.278 69.2636 97.0616 68.3969 97.788C66.8309 99.1023 64.44 99.1023 62.874 97.788C62.0073 97.0616 60.7342 98.278 61.6068 99.0101Z" fill="#1F5E27"/>
</g>
<defs>
<clipPath id="clip0_16453_912">
<rect width="132" height="137" fill="white"/>
</clipPath>
</defs>
</svg>
