<svg width="320" height="107" viewBox="0 0 320 107" fill="none" xmlns="http://www.w3.org/2000/svg">
<g clip-path="url(#clip0_1_764)">
<path d="M70.86 72.825V33.585H83.68L84.42 46.475L81.55 44.265C82.19 42.105 83.18 40.155 84.53 38.405C85.88 36.655 87.51 35.295 89.43 34.275C91.35 33.265 93.36 32.775 95.48 32.775C96.37 32.775 97.2 32.835 97.98 32.955C98.76 33.075 99.5 33.235 100.19 33.435L96.43 48.605C95.89 48.265 95.12 47.965 94.14 47.685C93.16 47.405 92.1 47.285 90.98 47.285C90 47.285 89.11 47.435 88.32 47.765C87.54 48.085 86.88 48.535 86.32 49.135C85.78 49.715 85.37 50.425 85.06 51.235C84.75 52.045 84.61 52.985 84.61 54.075V72.855H70.85L70.86 72.825Z" fill="#385654"/>
<path d="M123.42 73.555C119.24 73.555 115.51 72.665 112.21 70.905C108.92 69.145 106.34 66.735 104.47 63.695C102.6 60.655 101.68 57.145 101.68 53.175C101.68 49.205 102.62 45.685 104.47 42.655C106.34 39.615 108.92 37.205 112.21 35.445C115.5 33.685 119.24 32.795 123.42 32.795C127.6 32.795 131.31 33.685 134.58 35.445C137.85 37.205 140.41 39.615 142.29 42.655C144.16 45.695 145.08 49.205 145.08 53.175C145.08 57.145 144.14 60.665 142.29 63.695C140.42 66.745 137.85 69.145 134.58 70.905C131.31 72.665 127.59 73.555 123.42 73.555ZM123.42 61.985C124.89 61.985 126.23 61.605 127.44 60.845C128.64 60.075 129.57 59.035 130.23 57.685C130.89 56.335 131.23 54.835 131.23 53.155C131.23 51.395 130.89 49.845 130.23 48.525C129.57 47.205 128.63 46.165 127.44 45.395C126.24 44.625 124.89 44.255 123.42 44.255C121.95 44.255 120.55 44.635 119.37 45.395C118.19 46.165 117.25 47.205 116.58 48.555C115.89 49.905 115.55 51.435 115.55 53.155C115.55 54.875 115.89 56.335 116.58 57.685C117.27 59.035 118.21 60.095 119.37 60.845C120.54 61.595 121.9 61.985 123.42 61.985Z" fill="#385654"/>
<path d="M170.07 73.555C166.19 73.555 162.72 72.665 159.64 70.905C156.56 69.145 154.14 66.715 152.38 63.645C150.61 60.575 149.72 57.075 149.72 53.155C149.72 49.235 150.61 45.735 152.38 42.665C154.15 39.595 156.57 37.175 159.64 35.405C162.71 33.645 166.18 32.755 170.07 32.755C173.6 32.755 176.86 33.325 179.84 34.445C182.82 35.585 185.18 37.195 186.95 39.305L179.5 48.145C178.96 47.455 178.27 46.825 177.44 46.275C176.61 45.705 175.69 45.265 174.68 44.955C173.67 44.635 172.56 44.475 171.33 44.475C169.7 44.475 168.29 44.845 167.06 45.575C165.83 46.315 164.88 47.325 164.22 48.625C163.56 49.925 163.22 51.415 163.22 53.075C163.22 54.735 163.54 56.215 164.17 57.495C164.82 58.765 165.75 59.795 167.01 60.595C168.27 61.375 169.7 61.775 171.32 61.775C172.55 61.775 173.67 61.625 174.67 61.335C175.68 61.045 176.59 60.625 177.4 60.075C178.21 59.535 178.9 58.895 179.5 58.155L186.95 67.065C185.14 69.125 182.74 70.715 179.76 71.855C176.78 72.995 173.56 73.545 170.07 73.545H170.05L170.07 73.555Z" fill="#385654"/>
<path d="M210.6 73.555C206.72 73.555 203.25 72.665 200.17 70.905C197.09 69.145 194.67 66.715 192.91 63.645C191.14 60.575 190.25 57.075 190.25 53.155C190.25 49.235 191.14 45.735 192.91 42.665C194.67 39.595 197.1 37.175 200.17 35.405C203.24 33.645 206.71 32.755 210.6 32.755C214.13 32.755 217.39 33.325 220.36 34.445C223.34 35.585 225.7 37.195 227.47 39.305L220.02 48.145C219.48 47.455 218.79 46.825 217.96 46.275C217.13 45.705 216.21 45.265 215.2 44.955C214.19 44.635 213.08 44.475 211.85 44.475C210.22 44.475 208.81 44.845 207.58 45.575C206.35 46.315 205.4 47.325 204.74 48.625C204.08 49.925 203.74 51.415 203.74 53.075C203.74 54.735 204.06 56.215 204.69 57.495C205.34 58.765 206.27 59.795 207.53 60.595C208.79 61.375 210.22 61.775 211.85 61.775C213.08 61.775 214.2 61.625 215.2 61.335C216.21 61.045 217.12 60.625 217.93 60.075C218.74 59.535 219.44 58.895 220.03 58.155L227.48 67.065C225.67 69.125 223.27 70.715 220.3 71.855C217.32 72.995 214.1 73.545 210.61 73.545H210.6V73.555Z" fill="#385654"/>
<path d="M252.54 73.555C248.36 73.555 244.63 72.665 241.33 70.905C238.04 69.145 235.46 66.735 233.59 63.695C231.72 60.655 230.8 57.145 230.8 53.175C230.8 49.205 231.74 45.685 233.59 42.655C235.46 39.615 238.04 37.205 241.33 35.445C244.62 33.685 248.36 32.795 252.54 32.795C256.72 32.795 260.43 33.685 263.7 35.445C266.97 37.205 269.53 39.615 271.41 42.655C273.28 45.695 274.2 49.205 274.2 53.175C274.2 57.145 273.26 60.665 271.41 63.695C269.54 66.745 266.97 69.145 263.7 70.905C260.43 72.665 256.71 73.555 252.54 73.555ZM252.54 61.985C254.01 61.985 255.35 61.605 256.56 60.845C257.76 60.075 258.69 59.035 259.35 57.685C260.01 56.335 260.35 54.835 260.35 53.155C260.35 51.395 260.01 49.845 259.35 48.525C258.69 47.205 257.75 46.165 256.56 45.395C255.36 44.625 254.01 44.255 252.54 44.255C251.07 44.255 249.67 44.635 248.49 45.395C247.31 46.165 246.37 47.205 245.69 48.555C245 49.905 244.66 51.435 244.66 53.155C244.66 54.875 245 56.335 245.69 57.685C246.38 59.035 247.32 60.095 248.49 60.845C249.66 61.595 251.02 61.985 252.54 61.985Z" fill="#385654"/>
<path d="M279.76 72.825V13.485H293.47V72.825H279.76Z" fill="#385654"/>
<path d="M311.16 26.145C308.66 26.145 306.71 25.565 305.34 24.415C303.96 23.265 303.28 21.625 303.28 19.525C303.28 17.565 303.99 15.955 305.38 14.705C306.78 13.445 308.71 12.835 311.17 12.835C313.63 12.835 315.56 13.415 316.96 14.565C318.36 15.715 319.06 17.375 319.06 19.535C319.06 21.495 318.35 23.095 316.92 24.325C315.49 25.555 313.57 26.165 311.18 26.165L311.15 26.145H311.16Z" fill="#385654"/>
<path d="M318.01 33.585H304.3V72.825H318.01V33.585Z" fill="#385654"/>
<path d="M63.66 59.375C69.09 47.695 61.05 33.075 48.5 31.245C56.66 -3.96499 2.19 -11.435 0.5 24.645V74.045H39.21V73.895C51.73 73.465 60.06 68.965 63.66 59.375Z" fill="#385654"/>
<path d="M48.77 50.475C48.6 55.455 44.43 60.145 38.39 61.545C29.46 61.745 20.53 61.935 11.6 62.145L11.28 48.225L22.92 41.755C29.02 37.555 36.34 36.795 41.8 39.965C43.03 40.665 48.95 44.365 48.73 50.495L48.76 50.475H48.77Z" fill="#3E957F"/>
<path d="M22.08 51.355L11.29 62.645V30.005C11.29 22.175 17.64 15.845 25.46 15.845H26.72C33.14 15.845 38.35 21.045 38.35 27.465C38.35 38.915 34.92 38.685 22.08 51.365V51.355Z" fill="#72C599"/>
</g>
<path d="M65.7569 98.245C64.8235 98.245 63.9835 98.0917 63.2369 97.785C62.5035 97.465 61.9035 97.0117 61.4369 96.425L63.0369 95.045C63.4369 95.4983 63.8835 95.825 64.3769 96.025C64.8702 96.225 65.3902 96.325 65.9369 96.325C66.1635 96.325 66.3635 96.2983 66.5369 96.245C66.7235 96.1917 66.8835 96.1117 67.0169 96.005C67.1502 95.8983 67.2502 95.7783 67.3169 95.645C67.3969 95.4983 67.4369 95.3383 67.4369 95.165C67.4369 94.845 67.3169 94.5917 67.0769 94.405C66.9435 94.3117 66.7302 94.2117 66.4369 94.105C66.1569 93.9983 65.7902 93.8917 65.3369 93.785C64.6169 93.5983 64.0169 93.385 63.5369 93.145C63.0569 92.8917 62.6835 92.6117 62.4169 92.305C62.1902 92.0517 62.0169 91.765 61.8969 91.445C61.7902 91.125 61.7369 90.7783 61.7369 90.405C61.7369 89.9383 61.8369 89.5183 62.0369 89.145C62.2502 88.7583 62.5369 88.425 62.8969 88.145C63.2569 87.865 63.6769 87.6517 64.1569 87.505C64.6369 87.3583 65.1369 87.285 65.6569 87.285C66.1902 87.285 66.7035 87.3517 67.1969 87.485C67.7035 87.6183 68.1702 87.8117 68.5969 88.065C69.0369 88.305 69.4102 88.5983 69.7169 88.945L68.3569 90.445C68.1035 90.205 67.8235 89.9917 67.5169 89.805C67.2235 89.6183 66.9235 89.4717 66.6169 89.365C66.3102 89.245 66.0235 89.185 65.7569 89.185C65.5035 89.185 65.2769 89.2117 65.0769 89.265C64.8769 89.305 64.7102 89.3717 64.5769 89.465C64.4435 89.5583 64.3369 89.6783 64.2569 89.825C64.1902 89.9583 64.1569 90.1183 64.1569 90.305C64.1702 90.465 64.2102 90.6183 64.2769 90.765C64.3569 90.8983 64.4635 91.0117 64.5969 91.105C64.7435 91.1983 64.9635 91.305 65.2569 91.425C65.5502 91.545 65.9302 91.6583 66.3969 91.765C67.0502 91.9383 67.5969 92.1317 68.0369 92.345C68.4769 92.5583 68.8235 92.805 69.0769 93.085C69.3302 93.325 69.5102 93.605 69.6169 93.925C69.7235 94.245 69.7769 94.5983 69.7769 94.985C69.7769 95.6117 69.5969 96.1717 69.2369 96.665C68.8902 97.1583 68.4102 97.545 67.7969 97.825C67.1969 98.105 66.5169 98.245 65.7569 98.245ZM71.9439 98.045V83.245H74.3839V89.665L73.9239 89.905C74.0572 89.425 74.3172 88.9917 74.7039 88.605C75.0906 88.205 75.5506 87.885 76.0839 87.645C76.6172 87.405 77.1639 87.285 77.7239 87.285C78.5239 87.285 79.1906 87.445 79.7239 87.765C80.2706 88.085 80.6772 88.565 80.9439 89.205C81.2239 89.845 81.3639 90.645 81.3639 91.605V98.045H78.9039V91.785C78.9039 91.2517 78.8306 90.8117 78.6839 90.465C78.5372 90.105 78.3106 89.845 78.0039 89.685C77.6972 89.5117 77.3239 89.4317 76.8839 89.445C76.5239 89.445 76.1906 89.505 75.8839 89.625C75.5906 89.7317 75.3306 89.8917 75.1039 90.105C74.8906 90.305 74.7172 90.5383 74.5839 90.805C74.4639 91.0717 74.4039 91.365 74.4039 91.685V98.045H73.1839C72.9439 98.045 72.7172 98.045 72.5039 98.045C72.3039 98.045 72.1172 98.045 71.9439 98.045ZM88.9514 98.245C87.8981 98.245 86.9581 98.0117 86.1314 97.545C85.3047 97.065 84.6514 96.4117 84.1714 95.585C83.6914 94.7583 83.4514 93.8183 83.4514 92.765C83.4514 91.7117 83.6914 90.7717 84.1714 89.945C84.6514 89.1183 85.3047 88.4717 86.1314 88.005C86.9581 87.525 87.8981 87.285 88.9514 87.285C89.9914 87.285 90.9247 87.525 91.7514 88.005C92.5781 88.4717 93.2247 89.1183 93.6914 89.945C94.1714 90.7717 94.4114 91.7117 94.4114 92.765C94.4114 93.8183 94.1714 94.7583 93.6914 95.585C93.2247 96.4117 92.5781 97.065 91.7514 97.545C90.9247 98.0117 89.9914 98.245 88.9514 98.245ZM88.9514 96.065C89.5247 96.065 90.0314 95.9183 90.4714 95.625C90.9247 95.3317 91.2781 94.9383 91.5314 94.445C91.7981 93.9517 91.9247 93.3917 91.9114 92.765C91.9247 92.125 91.7981 91.5583 91.5314 91.065C91.2781 90.5717 90.9247 90.185 90.4714 89.905C90.0314 89.6117 89.5247 89.465 88.9514 89.465C88.3781 89.465 87.8581 89.6117 87.3914 89.905C86.9381 90.185 86.5847 90.5783 86.3314 91.085C86.0781 91.5783 85.9514 92.1383 85.9514 92.765C85.9514 93.3917 86.0781 93.9517 86.3314 94.445C86.5847 94.9383 86.9381 95.3317 87.3914 95.625C87.8581 95.9183 88.3781 96.065 88.9514 96.065ZM96.6119 102.445V87.505H99.0319L99.0719 89.905L98.6519 89.725C98.7319 89.3117 98.9585 88.925 99.3319 88.565C99.7052 88.1917 100.159 87.8917 100.692 87.665C101.239 87.4383 101.805 87.325 102.392 87.325C103.325 87.325 104.152 87.5583 104.872 88.025C105.605 88.4917 106.179 89.1317 106.592 89.945C107.019 90.7583 107.232 91.6983 107.232 92.765C107.232 93.8183 107.019 94.7583 106.592 95.585C106.179 96.3983 105.605 97.045 104.872 97.525C104.152 97.9917 103.339 98.225 102.432 98.225C101.819 98.225 101.225 98.105 100.652 97.865C100.092 97.625 99.6119 97.3117 99.2119 96.925C98.8252 96.5383 98.5852 96.1317 98.4919 95.705L99.0919 95.425V102.445H96.6119ZM101.932 96.045C102.492 96.045 102.992 95.905 103.432 95.625C103.872 95.345 104.212 94.9583 104.452 94.465C104.705 93.9717 104.832 93.405 104.832 92.765C104.832 92.125 104.712 91.565 104.472 91.085C104.232 90.5917 103.892 90.205 103.452 89.925C103.012 89.645 102.505 89.505 101.932 89.505C101.345 89.505 100.832 89.645 100.392 89.925C99.9652 90.1917 99.6252 90.5717 99.3719 91.065C99.1185 91.5583 98.9919 92.125 98.9919 92.765C98.9919 93.405 99.1185 93.9717 99.3719 94.465C99.6252 94.9583 99.9652 95.345 100.392 95.625C100.832 95.905 101.345 96.045 101.932 96.045ZM109.424 102.445V87.505H111.844L111.884 89.905L111.464 89.725C111.544 89.3117 111.771 88.925 112.144 88.565C112.518 88.1917 112.971 87.8917 113.504 87.665C114.051 87.4383 114.618 87.325 115.204 87.325C116.138 87.325 116.964 87.5583 117.684 88.025C118.418 88.4917 118.991 89.1317 119.404 89.945C119.831 90.7583 120.044 91.6983 120.044 92.765C120.044 93.8183 119.831 94.7583 119.404 95.585C118.991 96.3983 118.418 97.045 117.684 97.525C116.964 97.9917 116.151 98.225 115.244 98.225C114.631 98.225 114.038 98.105 113.464 97.865C112.904 97.625 112.424 97.3117 112.024 96.925C111.638 96.5383 111.398 96.1317 111.304 95.705L111.904 95.425V102.445H109.424ZM114.744 96.045C115.304 96.045 115.804 95.905 116.244 95.625C116.684 95.345 117.024 94.9583 117.264 94.465C117.518 93.9717 117.644 93.405 117.644 92.765C117.644 92.125 117.524 91.565 117.284 91.085C117.044 90.5917 116.704 90.205 116.264 89.925C115.824 89.645 115.318 89.505 114.744 89.505C114.158 89.505 113.644 89.645 113.204 89.925C112.778 90.1917 112.438 90.5717 112.184 91.065C111.931 91.5583 111.804 92.125 111.804 92.765C111.804 93.405 111.931 93.9717 112.184 94.465C112.438 94.9583 112.778 95.345 113.204 95.625C113.644 95.905 114.158 96.045 114.744 96.045ZM122.517 98.045V87.505H124.977V98.045H122.517ZM123.717 85.265C123.224 85.265 122.837 85.145 122.557 84.905C122.29 84.6517 122.157 84.2983 122.157 83.845C122.157 83.4183 122.297 83.0717 122.577 82.805C122.857 82.5383 123.237 82.405 123.717 82.405C124.224 82.405 124.61 82.5317 124.877 82.785C125.157 83.025 125.297 83.3783 125.297 83.845C125.297 84.2583 125.157 84.5983 124.877 84.865C124.597 85.1317 124.21 85.265 123.717 85.265ZM128.096 98.045V87.505H130.496L130.536 89.665L130.076 89.905C130.21 89.425 130.47 88.9917 130.856 88.605C131.243 88.205 131.703 87.885 132.236 87.645C132.77 87.405 133.316 87.285 133.876 87.285C134.676 87.285 135.343 87.445 135.876 87.765C136.423 88.085 136.83 88.565 137.096 89.205C137.376 89.845 137.516 90.645 137.516 91.605V98.045H135.056V91.785C135.056 91.2517 134.983 90.8117 134.836 90.465C134.69 90.105 134.463 89.845 134.156 89.685C133.85 89.5117 133.476 89.4317 133.036 89.445C132.676 89.445 132.343 89.505 132.036 89.625C131.743 89.7317 131.483 89.8917 131.256 90.105C131.043 90.305 130.87 90.5383 130.736 90.805C130.616 91.0717 130.556 91.365 130.556 91.685V98.045H129.336C129.096 98.045 128.87 98.045 128.656 98.045C128.456 98.045 128.27 98.045 128.096 98.045ZM145.024 102.645C144.237 102.645 143.45 102.525 142.664 102.285C141.89 102.045 141.264 101.732 140.784 101.345L141.664 99.525C141.944 99.725 142.257 99.8983 142.604 100.045C142.95 100.192 143.317 100.305 143.704 100.385C144.104 100.465 144.497 100.505 144.884 100.505C145.59 100.505 146.177 100.392 146.644 100.165C147.124 99.9517 147.484 99.6183 147.724 99.165C147.964 98.725 148.084 98.1717 148.084 97.505V95.565L148.444 95.705C148.364 96.1183 148.144 96.5117 147.784 96.885C147.424 97.2583 146.97 97.565 146.424 97.805C145.877 98.0317 145.317 98.145 144.744 98.145C143.744 98.145 142.857 97.9117 142.084 97.445C141.324 96.9783 140.717 96.345 140.264 95.545C139.824 94.7317 139.604 93.7983 139.604 92.745C139.604 91.6917 139.824 90.7583 140.264 89.945C140.704 89.1183 141.304 88.4717 142.064 88.005C142.837 87.525 143.704 87.285 144.664 87.285C145.064 87.285 145.45 87.3317 145.824 87.425C146.197 87.5183 146.537 87.6517 146.844 87.825C147.164 87.9983 147.45 88.1917 147.704 88.405C147.957 88.6183 148.164 88.845 148.324 89.085C148.484 89.325 148.584 89.5583 148.624 89.785L148.104 89.945L148.144 87.505H150.564V97.325C150.564 98.1783 150.437 98.9317 150.184 99.585C149.93 100.238 149.564 100.792 149.084 101.245C148.604 101.712 148.024 102.058 147.344 102.285C146.664 102.525 145.89 102.645 145.024 102.645ZM145.124 96.045C145.724 96.045 146.25 95.905 146.704 95.625C147.17 95.345 147.53 94.9583 147.784 94.465C148.037 93.9717 148.164 93.405 148.164 92.765C148.164 92.1117 148.03 91.5383 147.764 91.045C147.51 90.5383 147.157 90.145 146.704 89.865C146.25 89.585 145.724 89.445 145.124 89.445C144.524 89.445 143.997 89.5917 143.544 89.885C143.09 90.165 142.73 90.5583 142.464 91.065C142.21 91.5583 142.084 92.125 142.084 92.765C142.084 93.3917 142.21 93.9583 142.464 94.465C142.73 94.9583 143.09 95.345 143.544 95.625C143.997 95.905 144.524 96.045 145.124 96.045ZM159.248 98.045V87.505H161.668L161.708 89.625L161.308 89.785C161.428 89.4383 161.608 89.1183 161.848 88.825C162.088 88.5183 162.374 88.2583 162.708 88.045C163.041 87.8183 163.394 87.645 163.768 87.525C164.141 87.3917 164.521 87.325 164.908 87.325C165.481 87.325 165.988 87.4183 166.428 87.605C166.881 87.7783 167.254 88.0583 167.548 88.445C167.854 88.8317 168.081 89.325 168.228 89.925L167.848 89.845L168.008 89.525C168.154 89.205 168.361 88.9183 168.628 88.665C168.894 88.3983 169.194 88.165 169.528 87.965C169.861 87.7517 170.208 87.5917 170.568 87.485C170.941 87.3783 171.308 87.325 171.668 87.325C172.468 87.325 173.134 87.485 173.668 87.805C174.201 88.125 174.601 88.6117 174.868 89.265C175.134 89.9183 175.268 90.725 175.268 91.685V98.045H172.788V91.845C172.788 91.3117 172.714 90.8717 172.568 90.525C172.434 90.1783 172.221 89.925 171.928 89.765C171.648 89.5917 171.294 89.505 170.868 89.505C170.534 89.505 170.214 89.565 169.908 89.685C169.614 89.7917 169.361 89.9517 169.148 90.165C168.934 90.365 168.768 90.5983 168.648 90.865C168.528 91.1317 168.468 91.425 168.468 91.745V98.045H165.988V91.825C165.988 91.3183 165.914 90.8983 165.768 90.565C165.621 90.2183 165.408 89.9583 165.128 89.785C164.848 89.5983 164.508 89.505 164.108 89.505C163.774 89.505 163.461 89.565 163.168 89.685C162.874 89.7917 162.621 89.945 162.408 90.145C162.194 90.345 162.028 90.5783 161.908 90.845C161.788 91.1117 161.728 91.405 161.728 91.725V98.045H159.248ZM181.979 98.245C181.112 98.245 180.325 98.005 179.619 97.525C178.912 97.045 178.345 96.3917 177.919 95.565C177.492 94.7383 177.279 93.7983 177.279 92.745C177.279 91.6917 177.492 90.7517 177.919 89.925C178.345 89.0983 178.925 88.4517 179.659 87.985C180.392 87.5183 181.219 87.285 182.139 87.285C182.672 87.285 183.159 87.365 183.599 87.525C184.039 87.6717 184.425 87.885 184.759 88.165C185.092 88.445 185.365 88.765 185.579 89.125C185.805 89.485 185.959 89.8717 186.039 90.285L185.499 90.145V87.505H187.979V98.045H185.479V95.525L186.059 95.425C185.965 95.785 185.792 96.1383 185.539 96.485C185.299 96.8183 184.992 97.1183 184.619 97.385C184.259 97.6383 183.852 97.845 183.399 98.005C182.959 98.165 182.485 98.245 181.979 98.245ZM182.659 96.065C183.232 96.065 183.739 95.925 184.179 95.645C184.619 95.365 184.959 94.9783 185.199 94.485C185.452 93.9783 185.579 93.3983 185.579 92.745C185.579 92.105 185.452 91.5383 185.199 91.045C184.959 90.5517 184.619 90.165 184.179 89.885C183.739 89.605 183.232 89.465 182.659 89.465C182.085 89.465 181.579 89.605 181.139 89.885C180.712 90.165 180.379 90.5517 180.139 91.045C179.899 91.5383 179.779 92.105 179.779 92.745C179.779 93.3983 179.899 93.9783 180.139 94.485C180.379 94.9783 180.712 95.365 181.139 95.645C181.579 95.925 182.085 96.065 182.659 96.065ZM195.071 98.245C194.137 98.245 193.297 98.0117 192.551 97.545C191.817 97.065 191.231 96.4183 190.791 95.605C190.364 94.7783 190.151 93.8317 190.151 92.765C190.151 91.7117 190.364 90.7717 190.791 89.945C191.217 89.1183 191.797 88.4717 192.531 88.005C193.277 87.525 194.117 87.285 195.051 87.285C195.557 87.285 196.044 87.365 196.511 87.525C196.991 87.685 197.417 87.905 197.791 88.185C198.164 88.4517 198.457 88.7517 198.671 89.085C198.897 89.4183 199.024 89.765 199.051 90.125L198.391 90.205V83.245H200.851V98.045H198.471L198.411 95.565L198.891 95.605C198.877 95.9383 198.757 96.2583 198.531 96.565C198.317 96.8717 198.037 97.1517 197.691 97.405C197.344 97.6583 196.937 97.865 196.471 98.025C196.017 98.1717 195.551 98.245 195.071 98.245ZM195.551 96.165C196.124 96.165 196.631 96.0183 197.071 95.725C197.511 95.4317 197.851 95.0317 198.091 94.525C198.344 94.0183 198.471 93.4317 198.471 92.765C198.471 92.1117 198.344 91.5317 198.091 91.025C197.851 90.505 197.511 90.105 197.071 89.825C196.631 89.5317 196.124 89.385 195.551 89.385C194.977 89.385 194.471 89.5317 194.031 89.825C193.591 90.105 193.244 90.505 192.991 91.025C192.751 91.5317 192.631 92.1117 192.631 92.765C192.631 93.4317 192.751 94.0183 192.991 94.525C193.244 95.0317 193.591 95.4317 194.031 95.725C194.471 96.0183 194.977 96.165 195.551 96.165ZM208.583 98.245C207.476 98.245 206.496 98.0117 205.643 97.545C204.803 97.0783 204.143 96.445 203.663 95.645C203.196 94.8317 202.963 93.905 202.963 92.865C202.963 92.0383 203.096 91.285 203.363 90.605C203.63 89.925 203.996 89.3383 204.463 88.845C204.943 88.3383 205.51 87.9517 206.163 87.685C206.83 87.405 207.556 87.265 208.343 87.265C209.036 87.265 209.683 87.3983 210.283 87.665C210.883 87.9317 211.403 88.2983 211.843 88.765C212.283 89.2183 212.616 89.765 212.843 90.405C213.083 91.0317 213.196 91.7183 213.183 92.465L213.163 93.325H204.623L204.163 91.645H211.103L210.783 91.985V91.545C210.743 91.1317 210.61 90.7717 210.383 90.465C210.156 90.145 209.863 89.8983 209.503 89.725C209.156 89.5383 208.77 89.445 208.343 89.445C207.69 89.445 207.136 89.5717 206.683 89.825C206.243 90.0783 205.91 90.445 205.683 90.925C205.456 91.3917 205.343 91.9783 205.343 92.685C205.343 93.365 205.483 93.9583 205.763 94.465C206.056 94.9717 206.463 95.365 206.983 95.645C207.516 95.9117 208.136 96.045 208.843 96.045C209.336 96.045 209.79 95.965 210.203 95.805C210.616 95.645 211.063 95.3583 211.543 94.945L212.763 96.645C212.403 96.9783 211.99 97.265 211.523 97.505C211.07 97.7317 210.59 97.9117 210.083 98.045C209.576 98.1783 209.076 98.245 208.583 98.245ZM222.201 98.045V86.565C222.201 85.925 222.341 85.3583 222.621 84.865C222.901 84.3583 223.287 83.965 223.781 83.685C224.274 83.3917 224.847 83.245 225.501 83.245C225.954 83.245 226.374 83.325 226.761 83.485C227.147 83.6317 227.474 83.8383 227.741 84.105L226.981 85.965C226.807 85.8183 226.621 85.705 226.421 85.625C226.234 85.545 226.054 85.505 225.881 85.505C225.614 85.505 225.387 85.5517 225.201 85.645C225.027 85.725 224.894 85.8517 224.801 86.025C224.721 86.1983 224.681 86.405 224.681 86.645V98.045H223.441C223.201 98.045 222.974 98.045 222.761 98.045C222.561 98.045 222.374 98.045 222.201 98.045ZM220.561 89.885V87.725H227.061V89.885H220.561ZM232.752 98.245C231.992 98.245 231.332 98.0783 230.772 97.745C230.212 97.3983 229.786 96.9117 229.492 96.285C229.199 95.645 229.052 94.885 229.052 94.005V87.505H231.512V93.485C231.512 94.045 231.599 94.525 231.772 94.925C231.946 95.3117 232.199 95.6117 232.532 95.825C232.866 96.0383 233.266 96.145 233.732 96.145C234.079 96.145 234.392 96.0917 234.672 95.985C234.966 95.865 235.219 95.705 235.432 95.505C235.646 95.2917 235.812 95.045 235.932 94.765C236.052 94.4717 236.112 94.1583 236.112 93.825V87.505H238.572V98.045H236.172L236.132 95.845L236.572 95.605C236.412 96.1117 236.139 96.565 235.752 96.965C235.379 97.3517 234.932 97.665 234.412 97.905C233.892 98.1317 233.339 98.245 232.752 98.245ZM241.456 98.045V87.505H243.856L243.896 89.665L243.436 89.905C243.569 89.425 243.829 88.9917 244.216 88.605C244.602 88.205 245.062 87.885 245.596 87.645C246.129 87.405 246.676 87.285 247.236 87.285C248.036 87.285 248.702 87.445 249.236 87.765C249.782 88.085 250.189 88.565 250.456 89.205C250.736 89.845 250.876 90.645 250.876 91.605V98.045H248.416V91.785C248.416 91.2517 248.342 90.8117 248.196 90.465C248.049 90.105 247.822 89.845 247.516 89.685C247.209 89.5117 246.836 89.4317 246.396 89.445C246.036 89.445 245.702 89.505 245.396 89.625C245.102 89.7317 244.842 89.8917 244.616 90.105C244.402 90.305 244.229 90.5383 244.096 90.805C243.976 91.0717 243.916 91.365 243.916 91.685V98.045H242.696C242.456 98.045 242.229 98.045 242.016 98.045C241.816 98.045 241.629 98.045 241.456 98.045Z" fill="#375654"/>
<defs>
<clipPath id="clip0_1_764">
<rect width="318.57" height="73.09" fill="white" transform="translate(0.5 0.955017)"/>
</clipPath>
</defs>
</svg>
