<svg width="295" height="103" viewBox="0 0 295 103" fill="none" xmlns="http://www.w3.org/2000/svg">
<g clip-path="url(#clip0_1_764)">
<path d="M65.0038 66.6358V30.383H76.8479L77.5316 42.2917L74.8801 40.25C75.4713 38.2544 76.386 36.4528 77.6332 34.8361C78.8804 33.2193 80.3864 31.9628 82.1602 31.0205C83.934 30.0873 85.791 29.6346 87.7496 29.6346C88.5719 29.6346 89.3387 29.6901 90.0593 29.8009C90.7799 29.9118 91.4636 30.0596 92.1011 30.2444L88.6273 44.2596C88.1284 43.9455 87.417 43.6683 86.5116 43.4096C85.6062 43.1509 84.6269 43.0401 83.5922 43.0401C82.6868 43.0401 81.8646 43.1786 81.1347 43.4835C80.4141 43.7792 79.8043 44.1949 79.2869 44.7492C78.788 45.2851 78.4093 45.941 78.1229 46.6894C77.8365 47.4377 77.7071 48.3062 77.7071 49.3132V66.6635H64.9946L65.0038 66.6358Z" fill="#375654"/>
<path d="M113.563 67.3103C109.701 67.3103 106.255 66.488 103.206 64.862C100.166 63.236 97.7829 61.0094 96.0553 58.2009C94.3276 55.3923 93.4776 52.1495 93.4776 48.4817C93.4776 44.8139 94.3461 41.5619 96.0553 38.7625C97.7829 35.954 100.166 33.7274 103.206 32.1014C106.246 30.4754 109.701 29.6531 113.563 29.6531C117.424 29.6531 120.852 30.4754 123.873 32.1014C126.894 33.7274 129.259 35.954 130.996 38.7625C132.724 41.5711 133.574 44.8139 133.574 48.4817C133.574 52.1495 132.705 55.4015 130.996 58.2009C129.269 61.0187 126.894 63.236 123.873 64.862C120.852 66.488 117.415 67.3103 113.563 67.3103ZM113.563 56.621C114.921 56.621 116.159 56.27 117.277 55.5678C118.385 54.8564 119.245 53.8956 119.854 52.6484C120.464 51.4011 120.778 50.0153 120.778 48.4632C120.778 46.8372 120.464 45.4052 119.854 44.1857C119.245 42.9662 118.376 42.0053 117.277 41.294C116.168 40.5826 114.921 40.2407 113.563 40.2407C112.205 40.2407 110.911 40.5918 109.821 41.294C108.731 42.0053 107.862 42.9662 107.243 44.2134C106.606 45.4606 106.292 46.8742 106.292 48.4632C106.292 50.0523 106.606 51.4011 107.243 52.6484C107.881 53.8956 108.749 54.8749 109.821 55.5678C110.902 56.2607 112.158 56.621 113.563 56.621Z" fill="#375654"/>
<path d="M156.661 67.3104C153.077 67.3104 149.871 66.4881 147.025 64.8621C144.18 63.2361 141.944 60.9911 140.318 58.1548C138.683 55.3185 137.861 52.0849 137.861 48.4633C137.861 44.8417 138.683 41.6082 140.318 38.7719C141.953 35.9356 144.189 33.6998 147.025 32.0645C149.862 30.4385 153.068 29.6163 156.661 29.6163C159.923 29.6163 162.935 30.1429 165.688 31.1776C168.441 32.2308 170.621 33.7183 172.256 35.6677L165.374 43.8347C164.875 43.1972 164.237 42.6152 163.47 42.1071C162.704 41.5805 161.854 41.1739 160.921 40.8875C159.987 40.5919 158.962 40.4441 157.826 40.4441C156.32 40.4441 155.017 40.7859 153.881 41.4603C152.744 42.144 151.867 43.0771 151.257 44.2782C150.647 45.4792 150.333 46.8558 150.333 48.3894C150.333 49.923 150.629 51.2904 151.211 52.4729C151.811 53.6463 152.67 54.5978 153.834 55.3369C154.998 56.0576 156.32 56.4271 157.816 56.4271C158.953 56.4271 159.987 56.2885 160.911 56.0206C161.844 55.7527 162.685 55.3647 163.433 54.8565C164.182 54.3576 164.819 53.7664 165.374 53.0827L172.256 61.3144C170.584 63.2176 168.367 64.6866 165.614 65.7398C162.861 66.793 159.886 67.3011 156.661 67.3011H156.643L156.661 67.3104Z" fill="#375654"/>
<path d="M194.106 67.3104C190.521 67.3104 187.316 66.4881 184.47 64.8621C181.625 63.2361 179.389 60.9911 177.763 58.1548C176.127 55.3185 175.305 52.0849 175.305 48.4633C175.305 44.8417 176.127 41.6082 177.763 38.7719C179.389 35.9356 181.634 33.6998 184.47 32.0645C187.306 30.4385 190.512 29.6163 194.106 29.6163C197.367 29.6163 200.379 30.1429 203.123 31.1776C205.876 32.2308 208.057 33.7183 209.692 35.6677L202.809 43.8347C202.31 43.1972 201.673 42.6152 200.906 42.1071C200.139 41.5805 199.289 41.1739 198.356 40.8875C197.423 40.5919 196.397 40.4441 195.261 40.4441C193.755 40.4441 192.452 40.7859 191.316 41.4603C190.18 42.144 189.302 43.0771 188.692 44.2782C188.082 45.4792 187.768 46.8558 187.768 48.3894C187.768 49.923 188.064 51.2904 188.646 52.4729C189.247 53.6463 190.106 54.5978 191.27 55.3369C192.434 56.0576 193.755 56.4271 195.261 56.4271C196.397 56.4271 197.432 56.2885 198.356 56.0206C199.289 55.7527 200.13 55.3647 200.878 54.8565C201.626 54.3576 202.273 53.7664 202.818 53.0827L209.701 61.3144C208.029 63.2176 205.812 64.6866 203.068 65.7398C200.315 66.793 197.34 67.3011 194.115 67.3011H194.106V67.3104Z" fill="#375654"/>
<path d="M232.853 67.3103C228.992 67.3103 225.546 66.488 222.497 64.862C219.457 63.236 217.074 61.0094 215.346 58.2009C213.618 55.3923 212.768 52.1495 212.768 48.4817C212.768 44.8139 213.637 41.5619 215.346 38.7625C217.074 35.954 219.457 33.7274 222.497 32.1014C225.536 30.4754 228.992 29.6531 232.853 29.6531C236.715 29.6531 240.143 30.4754 243.164 32.1014C246.185 33.7274 248.55 35.954 250.287 38.7625C252.015 41.5711 252.865 44.8139 252.865 48.4817C252.865 52.1495 251.996 55.4015 250.287 58.2009C248.559 61.0187 246.185 63.236 243.164 64.862C240.143 66.488 236.706 67.3103 232.853 67.3103ZM232.853 56.621C234.211 56.621 235.449 56.27 236.567 55.5678C237.676 54.8564 238.535 53.8956 239.145 52.6484C239.755 51.4011 240.069 50.0153 240.069 48.4632C240.069 46.8372 239.755 45.4052 239.145 44.1857C238.535 42.9662 237.667 42.0053 236.567 41.294C235.459 40.5826 234.211 40.2407 232.853 40.2407C231.495 40.2407 230.202 40.5918 229.112 41.294C228.022 42.0053 227.153 42.9662 226.525 44.2134C225.887 45.4606 225.573 46.8742 225.573 48.4632C225.573 50.0523 225.887 51.4011 226.525 52.6484C227.162 53.8956 228.031 54.8749 229.112 55.5678C230.193 56.2607 231.449 56.621 232.853 56.621Z" fill="#375654"/>
<path d="M258.001 66.6359V11.8132H270.668V66.6359H258.001Z" fill="#375654"/>
<path d="M287.011 23.5094C284.701 23.5094 282.9 22.9736 281.634 21.9111C280.359 20.8487 279.731 19.3335 279.731 17.3934C279.731 15.5826 280.387 14.0951 281.671 12.9403C282.964 11.7762 284.747 11.2126 287.02 11.2126C289.293 11.2126 291.076 11.7485 292.369 12.8109C293.663 13.8734 294.31 15.407 294.31 17.4026C294.31 19.2134 293.654 20.6916 292.332 21.828C291.011 22.9643 289.237 23.5279 287.029 23.5279L287.002 23.5094H287.011Z" fill="#375654"/>
<path d="M293.34 30.383H280.673V66.6359H293.34V30.383Z" fill="#375654"/>
<path d="M58.3519 54.2099C63.3686 43.419 55.9406 29.9119 44.346 28.2213C51.8848 -4.30837 1.56134 -11.2097 -1.04904e-05 22.1237V67.7631H35.7632V67.6245C47.3301 67.2272 55.026 63.0698 58.3519 54.2099Z" fill="#375654"/>
<path d="M44.5954 45.9873C44.4384 50.5882 40.5858 54.9211 35.0056 56.2146C26.7554 56.3993 18.5052 56.5749 10.255 56.7689L9.95937 43.9086L20.7133 37.9311C26.3489 34.0508 33.1117 33.3487 38.156 36.2773C39.2924 36.9241 44.7617 40.3424 44.5585 46.0058L44.5862 45.9873H44.5954Z" fill="#3F957F"/>
<path d="M19.9372 46.8003L9.96862 57.2308V27.0756C9.96862 19.8416 15.8352 13.9935 23.0599 13.9935H24.224C30.1553 13.9935 34.9687 18.7976 34.9687 24.7289C34.9687 35.3073 31.7998 35.0948 19.9372 46.8095V46.8003Z" fill="#3F957F"/>
</g>
<path d="M37.3557 94.0128L39.4252 89.2272L39.4437 90.7423L34.6395 80.0254H37.2633L39.9425 86.3816C40.0288 86.5418 40.115 86.7573 40.2012 87.0283C40.2875 87.287 40.3614 87.5457 40.423 87.8044L39.961 87.9522C40.0473 87.7182 40.1396 87.4718 40.2382 87.2131C40.3367 86.9421 40.4291 86.6649 40.5154 86.3816L42.8066 80.0254H45.4488L41.3838 89.763L39.7208 94.0128H37.3557ZM51.1392 89.9478C50.166 89.9478 49.2976 89.7322 48.5339 89.3011C47.7701 88.8576 47.1665 88.254 46.7231 87.4903C46.2796 86.7265 46.0579 85.8581 46.0579 84.8849C46.0579 83.9118 46.2796 83.0434 46.7231 82.2796C47.1665 81.5159 47.7701 80.9184 48.5339 80.4873C49.2976 80.0438 50.166 79.8221 51.1392 79.8221C52.1 79.8221 52.9623 80.0438 53.726 80.4873C54.4898 80.9184 55.0872 81.5159 55.5184 82.2796C55.9618 83.0434 56.1835 83.9118 56.1835 84.8849C56.1835 85.8581 55.9618 86.7265 55.5184 87.4903C55.0872 88.254 54.4898 88.8576 53.726 89.3011C52.9623 89.7322 52.1 89.9478 51.1392 89.9478ZM51.1392 87.9337C51.6689 87.9337 52.137 87.7982 52.5435 87.5272C52.9623 87.2562 53.2887 86.8928 53.5228 86.4371C53.7692 85.9813 53.8862 85.4639 53.8739 84.8849C53.8862 84.2937 53.7692 83.7701 53.5228 83.3144C53.2887 82.8586 52.9623 82.5013 52.5435 82.2427C52.137 81.9717 51.6689 81.8362 51.1392 81.8362C50.6095 81.8362 50.1291 81.9717 49.6979 82.2427C49.2791 82.5013 48.9527 82.8647 48.7186 83.3328C48.4846 83.7886 48.3676 84.306 48.3676 84.8849C48.3676 85.4639 48.4846 85.9813 48.7186 86.4371C48.9527 86.8928 49.2791 87.2562 49.6979 87.5272C50.1291 87.7982 50.6095 87.9337 51.1392 87.9337ZM61.5979 89.9478C60.8957 89.9478 60.286 89.7938 59.7686 89.4858C59.2512 89.1656 58.8571 88.7159 58.5861 88.137C58.3151 87.5457 58.1795 86.8436 58.1795 86.0305V80.0254H60.4523V85.5501C60.4523 86.0675 60.5323 86.511 60.6925 86.8805C60.8526 87.2377 61.0867 87.5149 61.3946 87.712C61.7026 87.9091 62.0721 88.0076 62.5033 88.0076C62.8236 88.0076 63.113 87.9584 63.3717 87.8598C63.6427 87.749 63.8768 87.6011 64.0739 87.4164C64.271 87.2193 64.4249 86.9914 64.5358 86.7327C64.6467 86.4617 64.7021 86.1722 64.7021 85.8642V80.0254H66.9748V89.763H64.7575L64.7206 87.7305L65.1271 87.5087C64.9793 87.9768 64.7267 88.3957 64.3695 88.7652C64.0246 89.1224 63.6119 89.4119 63.1315 89.6337C62.6511 89.8431 62.1399 89.9478 61.5979 89.9478ZM69.6386 89.763V80.0254H71.8744L71.9114 83.1296L71.5972 82.4274C71.7327 81.9347 71.9668 81.4912 72.2994 81.0971C72.632 80.7029 73.0138 80.3949 73.445 80.1732C73.8884 79.9391 74.3504 79.8221 74.8308 79.8221C75.0402 79.8221 75.2373 79.8406 75.4221 79.8775C75.6192 79.9145 75.7793 79.9576 75.9025 80.0069L75.2927 82.5013C75.1572 82.4274 74.9909 82.3658 74.7938 82.3166C74.5968 82.2673 74.3997 82.2427 74.2026 82.2427C73.8946 82.2427 73.599 82.3043 73.3156 82.4274C73.0446 82.5383 72.8044 82.6984 72.595 82.9078C72.3856 83.1173 72.2193 83.3636 72.0961 83.6469C71.9853 83.918 71.9298 84.2259 71.9298 84.5708V89.763H69.6386ZM87.2263 94.0128C86.4995 94.0128 85.7728 93.902 85.046 93.6802C84.3315 93.4585 83.7525 93.169 83.3091 92.8118L84.1221 91.1303C84.3808 91.3151 84.6703 91.4752 84.9905 91.6108C85.3108 91.7463 85.6496 91.851 86.0068 91.9249C86.3764 91.9988 86.7397 92.0357 87.097 92.0357C87.7498 92.0357 88.2919 91.931 88.723 91.7216C89.1665 91.5245 89.499 91.2166 89.7208 90.7977C89.9425 90.3912 90.0534 89.88 90.0534 89.2641V87.4718L90.386 87.6011C90.3121 87.983 90.1088 88.3464 89.7762 88.6913C89.4436 89.0362 89.0248 89.3195 88.5197 89.5413C88.0147 89.7507 87.4973 89.8554 86.9676 89.8554C86.0438 89.8554 85.2246 89.6398 84.5101 89.2087C83.808 88.7775 83.2475 88.1924 82.8287 87.4533C82.4222 86.7019 82.2189 85.8396 82.2189 84.8665C82.2189 83.8933 82.4222 83.031 82.8287 82.2796C83.2352 81.5159 83.7895 80.9184 84.4916 80.4873C85.2061 80.0438 86.0068 79.8221 86.8937 79.8221C87.2633 79.8221 87.6205 79.8652 87.9654 79.9515C88.3103 80.0377 88.6244 80.1609 88.9078 80.321C89.2034 80.4811 89.4683 80.6598 89.7023 80.8568C89.9363 81.0539 90.1273 81.2634 90.2751 81.4851C90.4229 81.7068 90.5153 81.9224 90.5523 82.1318L90.0719 82.2796L90.1088 80.0254H92.3446V89.0978C92.3446 89.8862 92.2276 90.5822 91.9935 91.1858C91.7595 91.7894 91.4207 92.3006 90.9772 92.7194C90.5338 93.1505 89.9979 93.4708 89.3697 93.6802C88.7415 93.902 88.027 94.0128 87.2263 94.0128ZM87.3187 87.9153C87.873 87.9153 88.3596 87.7859 88.7784 87.5272C89.2096 87.2685 89.5422 86.9113 89.7762 86.4555C90.0103 85.9998 90.1273 85.4762 90.1273 84.8849C90.1273 84.2813 90.0041 83.7517 89.7577 83.2959C89.5237 82.8278 89.1972 82.4644 88.7784 82.2057C88.3596 81.947 87.873 81.8177 87.3187 81.8177C86.7644 81.8177 86.2778 81.9532 85.859 82.2242C85.4402 82.4829 85.1076 82.8463 84.8612 83.3144C84.6271 83.7701 84.5101 84.2937 84.5101 84.8849C84.5101 85.4639 84.6271 85.9874 84.8612 86.4555C85.1076 86.9113 85.4402 87.2685 85.859 87.5272C86.2778 87.7859 86.7644 87.9153 87.3187 87.9153ZM94.973 89.763V80.0254H97.2088L97.2457 83.1296L96.9316 82.4274C97.0671 81.9347 97.3012 81.4912 97.6338 81.0971C97.9664 80.7029 98.3482 80.3949 98.7794 80.1732C99.2228 79.9391 99.6848 79.8221 100.165 79.8221C100.375 79.8221 100.572 79.8406 100.756 79.8775C100.954 79.9145 101.114 79.9576 101.237 80.0069L100.627 82.5013C100.492 82.4274 100.325 82.3658 100.128 82.3166C99.9311 82.2673 99.734 82.2427 99.5369 82.2427C99.229 82.2427 98.9333 82.3043 98.65 82.4274C98.379 82.5383 98.1388 82.6984 97.9294 82.9078C97.72 83.1173 97.5537 83.3636 97.4305 83.6469C97.3196 83.918 97.2642 84.2259 97.2642 84.5708V89.763H94.973ZM106.788 89.9478C105.815 89.9478 104.947 89.7322 104.183 89.3011C103.419 88.8576 102.816 88.254 102.372 87.4903C101.929 86.7265 101.707 85.8581 101.707 84.8849C101.707 83.9118 101.929 83.0434 102.372 82.2796C102.816 81.5159 103.419 80.9184 104.183 80.4873C104.947 80.0438 105.815 79.8221 106.788 79.8221C107.749 79.8221 108.611 80.0438 109.375 80.4873C110.139 80.9184 110.736 81.5159 111.167 82.2796C111.611 83.0434 111.833 83.9118 111.833 84.8849C111.833 85.8581 111.611 86.7265 111.167 87.4903C110.736 88.254 110.139 88.8576 109.375 89.3011C108.611 89.7322 107.749 89.9478 106.788 89.9478ZM106.788 87.9337C107.318 87.9337 107.786 87.7982 108.192 87.5272C108.611 87.2562 108.938 86.8928 109.172 86.4371C109.418 85.9813 109.535 85.4639 109.523 84.8849C109.535 84.2937 109.418 83.7701 109.172 83.3144C108.938 82.8586 108.611 82.5013 108.192 82.2427C107.786 81.9717 107.318 81.8362 106.788 81.8362C106.259 81.8362 105.778 81.9717 105.347 82.2427C104.928 82.5013 104.602 82.8647 104.368 83.3328C104.134 83.7886 104.017 84.306 104.017 84.8849C104.017 85.4639 104.134 85.9813 104.368 86.4371C104.602 86.8928 104.928 87.2562 105.347 87.5272C105.778 87.7982 106.259 87.9337 106.788 87.9337ZM118.041 89.9478C117.13 89.9478 116.311 89.726 115.584 89.2826C114.857 88.8391 114.284 88.2355 113.866 87.4718C113.447 86.7081 113.237 85.8458 113.237 84.8849C113.237 83.9241 113.447 83.0618 113.866 82.2981C114.284 81.5344 114.857 80.9308 115.584 80.4873C116.311 80.0438 117.13 79.8221 118.041 79.8221C118.916 79.8221 119.711 79.9884 120.425 80.321C121.139 80.6536 121.694 81.1155 122.088 81.7068L120.832 83.222C120.647 82.9633 120.413 82.7292 120.129 82.5198C119.846 82.3104 119.544 82.1441 119.224 82.0209C118.904 81.8977 118.583 81.8362 118.263 81.8362C117.721 81.8362 117.235 81.9717 116.803 82.2427C116.385 82.5013 116.052 82.8647 115.806 83.3328C115.559 83.7886 115.436 84.306 115.436 84.8849C115.436 85.4639 115.559 85.9813 115.806 86.4371C116.064 86.8928 116.409 87.2562 116.84 87.5272C117.272 87.7982 117.752 87.9337 118.282 87.9337C118.602 87.9337 118.91 87.8845 119.206 87.7859C119.513 87.675 119.803 87.5211 120.074 87.324C120.345 87.1269 120.597 86.8805 120.832 86.5849L122.088 88.1185C121.669 88.6605 121.09 89.104 120.351 89.4489C119.624 89.7815 118.854 89.9478 118.041 89.9478ZM128.39 89.9478C127.368 89.9478 126.462 89.7322 125.674 89.3011C124.898 88.8699 124.288 88.2848 123.845 87.5457C123.413 86.7943 123.198 85.9382 123.198 84.9773C123.198 84.2136 123.321 83.5176 123.567 82.8894C123.814 82.2611 124.152 81.7191 124.584 81.2634C125.027 80.7953 125.551 80.438 126.154 80.1917C126.77 79.933 127.441 79.8036 128.168 79.8036C128.809 79.8036 129.406 79.9268 129.961 80.1732C130.515 80.4195 130.995 80.7583 131.402 81.1894C131.808 81.6083 132.116 82.1133 132.326 82.7046C132.547 83.2836 132.652 83.918 132.64 84.6078L132.621 85.4023H124.731L124.306 83.8502H130.718L130.423 84.1643V83.7578C130.386 83.3759 130.262 83.0434 130.053 82.76C129.844 82.4644 129.573 82.2365 129.24 82.0764C128.92 81.9039 128.562 81.8177 128.168 81.8177C127.565 81.8177 127.053 81.9347 126.635 82.1687C126.228 82.4028 125.92 82.7416 125.711 83.185C125.501 83.6162 125.397 84.1582 125.397 84.811C125.397 85.4393 125.526 85.9874 125.785 86.4555C126.056 86.9236 126.431 87.287 126.912 87.5457C127.405 87.7921 127.977 87.9153 128.63 87.9153C129.086 87.9153 129.505 87.8413 129.887 87.6935C130.269 87.5457 130.681 87.2809 131.125 86.899L132.252 88.4696C131.919 88.7775 131.537 89.0424 131.106 89.2641C130.687 89.4735 130.244 89.6398 129.776 89.763C129.308 89.8862 128.846 89.9478 128.39 89.9478ZM134.653 89.763V80.0254H136.888L136.925 83.1296L136.611 82.4274C136.747 81.9347 136.981 81.4912 137.313 81.0971C137.646 80.7029 138.028 80.3949 138.459 80.1732C138.903 79.9391 139.364 79.8221 139.845 79.8221C140.054 79.8221 140.251 79.8406 140.436 79.8775C140.633 79.9145 140.793 79.9576 140.917 80.0069L140.307 82.5013C140.171 82.4274 140.005 82.3658 139.808 82.3166C139.611 82.2673 139.414 82.2427 139.217 82.2427C138.909 82.2427 138.613 82.3043 138.33 82.4274C138.059 82.5383 137.819 82.6984 137.609 82.9078C137.4 83.1173 137.233 83.3636 137.11 83.6469C136.999 83.918 136.944 84.2259 136.944 84.5708V89.763H134.653ZM143.908 94.0128L145.978 89.2272L145.996 90.7423L141.192 80.0254H143.816L146.495 86.3816C146.581 86.5418 146.667 86.7573 146.754 87.0283C146.84 87.287 146.914 87.5457 146.975 87.8044L146.513 87.9522C146.6 87.7182 146.692 87.4718 146.791 87.2131C146.889 86.9421 146.981 86.6649 147.068 86.3816L149.359 80.0254H152.001L147.936 89.763L146.273 94.0128H143.908ZM163.026 89.9478C162.115 89.9478 161.295 89.726 160.569 89.2826C159.842 88.8391 159.269 88.2355 158.85 87.4718C158.431 86.7081 158.222 85.8458 158.222 84.8849C158.222 83.9241 158.431 83.0618 158.85 82.2981C159.269 81.5344 159.842 80.9308 160.569 80.4873C161.295 80.0438 162.115 79.8221 163.026 79.8221C163.901 79.8221 164.695 79.9884 165.41 80.321C166.124 80.6536 166.679 81.1155 167.073 81.7068L165.816 83.222C165.632 82.9633 165.397 82.7292 165.114 82.5198C164.831 82.3104 164.529 82.1441 164.209 82.0209C163.888 81.8977 163.568 81.8362 163.248 81.8362C162.706 81.8362 162.219 81.9717 161.788 82.2427C161.369 82.5013 161.037 82.8647 160.79 83.3328C160.544 83.7886 160.421 84.306 160.421 84.8849C160.421 85.4639 160.544 85.9813 160.79 86.4371C161.049 86.8928 161.394 87.2562 161.825 87.5272C162.256 87.7982 162.737 87.9337 163.266 87.9337C163.587 87.9337 163.895 87.8845 164.19 87.7859C164.498 87.675 164.788 87.5211 165.059 87.324C165.33 87.1269 165.582 86.8805 165.816 86.5849L167.073 88.1185C166.654 88.6605 166.075 89.104 165.336 89.4489C164.609 89.7815 163.839 89.9478 163.026 89.9478ZM173.264 89.9478C172.291 89.9478 171.422 89.7322 170.659 89.3011C169.895 88.8576 169.291 88.254 168.848 87.4903C168.404 86.7265 168.183 85.8581 168.183 84.8849C168.183 83.9118 168.404 83.0434 168.848 82.2796C169.291 81.5159 169.895 80.9184 170.659 80.4873C171.422 80.0438 172.291 79.8221 173.264 79.8221C174.225 79.8221 175.087 80.0438 175.851 80.4873C176.614 80.9184 177.212 81.5159 177.643 82.2796C178.087 83.0434 178.308 83.9118 178.308 84.8849C178.308 85.8581 178.087 86.7265 177.643 87.4903C177.212 88.254 176.614 88.8576 175.851 89.3011C175.087 89.7322 174.225 89.9478 173.264 89.9478ZM173.264 87.9337C173.794 87.9337 174.262 87.7982 174.668 87.5272C175.087 87.2562 175.413 86.8928 175.647 86.4371C175.894 85.9813 176.011 85.4639 175.999 84.8849C176.011 84.2937 175.894 83.7701 175.647 83.3144C175.413 82.8586 175.087 82.5013 174.668 82.2427C174.262 81.9717 173.794 81.8362 173.264 81.8362C172.734 81.8362 172.254 81.9717 171.823 82.2427C171.404 82.5013 171.077 82.8647 170.843 83.3328C170.609 83.7886 170.492 84.306 170.492 84.8849C170.492 85.4639 170.609 85.9813 170.843 86.4371C171.077 86.8928 171.404 87.2562 171.823 87.5272C172.254 87.7982 172.734 87.9337 173.264 87.9337ZM180.304 89.763V80.0254H182.54L182.577 81.984L182.207 82.1318C182.318 81.8115 182.485 81.5159 182.706 81.2449C182.928 80.9616 183.193 80.7213 183.501 80.5243C183.809 80.3148 184.135 80.1547 184.48 80.0438C184.825 79.9207 185.176 79.8591 185.533 79.8591C186.063 79.8591 186.531 79.9453 186.938 80.1177C187.356 80.2779 187.701 80.5366 187.972 80.8938C188.256 81.251 188.465 81.7068 188.601 82.2611L188.25 82.1872L188.397 81.8916C188.533 81.5959 188.724 81.3311 188.97 81.0971C189.217 80.8507 189.494 80.6351 189.802 80.4503C190.11 80.2532 190.43 80.1054 190.763 80.0069C191.107 79.9083 191.446 79.8591 191.779 79.8591C192.518 79.8591 193.134 80.0069 193.627 80.3025C194.119 80.5982 194.489 81.0478 194.735 81.6514C194.982 82.255 195.105 83.0002 195.105 83.8872V89.763H192.814V84.035C192.814 83.5422 192.746 83.1357 192.61 82.8155C192.487 82.4952 192.29 82.2611 192.019 82.1133C191.76 81.9532 191.434 81.8731 191.04 81.8731C190.732 81.8731 190.436 81.9285 190.153 82.0394C189.882 82.138 189.648 82.2858 189.451 82.4829C189.254 82.6676 189.1 82.8832 188.989 83.1296C188.878 83.3759 188.822 83.6469 188.822 83.9426V89.763H186.531V84.0165C186.531 83.5484 186.463 83.1604 186.328 82.8524C186.192 82.5321 185.995 82.2919 185.737 82.1318C185.478 81.9593 185.164 81.8731 184.794 81.8731C184.486 81.8731 184.197 81.9285 183.926 82.0394C183.655 82.138 183.421 82.2796 183.224 82.4644C183.027 82.6492 182.873 82.8647 182.762 83.1111C182.651 83.3575 182.595 83.6285 182.595 83.9241V89.763H180.304ZM197.628 93.828V80.0254H199.864L199.9 82.2427L199.512 82.0764C199.586 81.6945 199.796 81.3373 200.141 81.0047C200.486 80.6598 200.904 80.3826 201.397 80.1732C201.902 79.9638 202.426 79.8591 202.968 79.8591C203.83 79.8591 204.594 80.0746 205.259 80.5058C205.936 80.9369 206.466 81.5282 206.848 82.2796C207.242 83.031 207.439 83.8995 207.439 84.8849C207.439 85.8581 207.242 86.7265 206.848 87.4903C206.466 88.2417 205.936 88.8391 205.259 89.2826C204.594 89.7137 203.842 89.9293 203.005 89.9293C202.438 89.9293 201.89 89.8184 201.36 89.5967C200.843 89.375 200.399 89.0855 200.03 88.7283C199.673 88.371 199.451 87.9953 199.365 87.6011L199.919 87.3424V93.828H197.628ZM202.543 87.9153C203.06 87.9153 203.522 87.7859 203.929 87.5272C204.335 87.2685 204.649 86.9113 204.871 86.4555C205.105 85.9998 205.222 85.4762 205.222 84.8849C205.222 84.2937 205.111 83.7763 204.889 83.3328C204.668 82.8771 204.354 82.5198 203.947 82.2611C203.541 82.0025 203.072 81.8731 202.543 81.8731C202.001 81.8731 201.527 82.0025 201.12 82.2611C200.726 82.5075 200.412 82.8586 200.178 83.3144C199.944 83.7701 199.827 84.2937 199.827 84.8849C199.827 85.4762 199.944 85.9998 200.178 86.4555C200.412 86.9113 200.726 87.2685 201.12 87.5272C201.527 87.7859 202.001 87.9153 202.543 87.9153ZM213.142 89.9478C212.341 89.9478 211.614 89.726 210.962 89.2826C210.309 88.8391 209.785 88.2355 209.391 87.4718C208.997 86.7081 208.8 85.8396 208.8 84.8665C208.8 83.8933 208.997 83.0249 209.391 82.2611C209.785 81.4974 210.321 80.9 210.999 80.4688C211.676 80.0377 212.44 79.8221 213.29 79.8221C213.782 79.8221 214.232 79.896 214.639 80.0438C215.045 80.1793 215.402 80.3764 215.71 80.6351C216.018 80.8938 216.271 81.1894 216.468 81.522C216.677 81.8546 216.819 82.2119 216.893 82.5937L216.394 82.4644V80.0254H218.685V89.763H216.375V87.4348L216.911 87.3424C216.825 87.675 216.665 88.0015 216.431 88.3218C216.209 88.6297 215.926 88.9069 215.581 89.1532C215.248 89.3873 214.873 89.5782 214.454 89.726C214.047 89.8739 213.61 89.9478 213.142 89.9478ZM213.77 87.9337C214.3 87.9337 214.768 87.8044 215.174 87.5457C215.581 87.287 215.895 86.9298 216.117 86.474C216.351 86.0059 216.468 85.4701 216.468 84.8665C216.468 84.2752 216.351 83.7517 216.117 83.2959C215.895 82.8401 215.581 82.4829 215.174 82.2242C214.768 81.9655 214.3 81.8362 213.77 81.8362C213.24 81.8362 212.772 81.9655 212.366 82.2242C211.972 82.4829 211.664 82.8401 211.442 83.2959C211.22 83.7517 211.109 84.2752 211.109 84.8665C211.109 85.4701 211.22 86.0059 211.442 86.474C211.664 86.9298 211.972 87.287 212.366 87.5457C212.772 87.8044 213.24 87.9337 213.77 87.9337ZM221.32 89.763V80.0254H223.537L223.574 82.0209L223.149 82.2427C223.273 81.7992 223.513 81.3989 223.87 81.0416C224.227 80.6721 224.652 80.3764 225.145 80.1547C225.638 79.933 226.143 79.8221 226.66 79.8221C227.399 79.8221 228.015 79.9699 228.508 80.2656C229.013 80.5612 229.389 81.0047 229.635 81.5959C229.894 82.1872 230.023 82.9263 230.023 83.8132V89.763H227.75V83.9795C227.75 83.4868 227.683 83.0803 227.547 82.76C227.412 82.4274 227.202 82.1872 226.919 82.0394C226.635 81.8793 226.291 81.8054 225.884 81.8177C225.551 81.8177 225.243 81.8731 224.96 81.984C224.689 82.0825 224.449 82.2303 224.24 82.4274C224.042 82.6122 223.882 82.8278 223.759 83.0741C223.648 83.3205 223.593 83.5915 223.593 83.8872V89.763H222.466C222.244 89.763 222.035 89.763 221.837 89.763C221.653 89.763 221.48 89.763 221.32 89.763ZM232.839 89.763V80.0254H235.111V89.763H232.839ZM233.947 77.9559C233.491 77.9559 233.134 77.845 232.875 77.6233C232.629 77.3892 232.506 77.0628 232.506 76.644C232.506 76.2498 232.635 75.9295 232.894 75.6831C233.153 75.4368 233.504 75.3136 233.947 75.3136C234.415 75.3136 234.772 75.4306 235.019 75.6647C235.278 75.8864 235.407 76.2128 235.407 76.644C235.407 77.0258 235.278 77.34 235.019 77.5863C234.76 77.8327 234.403 77.9559 233.947 77.9559ZM242.446 89.9478C241.473 89.9478 240.605 89.7322 239.841 89.3011C239.077 88.8576 238.474 88.254 238.03 87.4903C237.587 86.7265 237.365 85.8581 237.365 84.8849C237.365 83.9118 237.587 83.0434 238.03 82.2796C238.474 81.5159 239.077 80.9184 239.841 80.4873C240.605 80.0438 241.473 79.8221 242.446 79.8221C243.407 79.8221 244.269 80.0438 245.033 80.4873C245.797 80.9184 246.394 81.5159 246.825 82.2796C247.269 83.0434 247.491 83.9118 247.491 84.8849C247.491 85.8581 247.269 86.7265 246.825 87.4903C246.394 88.254 245.797 88.8576 245.033 89.3011C244.269 89.7322 243.407 89.9478 242.446 89.9478ZM242.446 87.9337C242.976 87.9337 243.444 87.7982 243.851 87.5272C244.269 87.2562 244.596 86.8928 244.83 86.4371C245.076 85.9813 245.193 85.4639 245.181 84.8849C245.193 84.2937 245.076 83.7701 244.83 83.3144C244.596 82.8586 244.269 82.5013 243.851 82.2427C243.444 81.9717 242.976 81.8362 242.446 81.8362C241.917 81.8362 241.436 81.9717 241.005 82.2427C240.586 82.5013 240.26 82.8647 240.026 83.3328C239.792 83.7886 239.675 84.306 239.675 84.8849C239.675 85.4639 239.792 85.9813 240.026 86.4371C240.26 86.8928 240.586 87.2562 241.005 87.5272C241.436 87.7982 241.917 87.9337 242.446 87.9337ZM249.524 89.763V80.0254H251.741L251.778 82.0209L251.353 82.2427C251.476 81.7992 251.716 81.3989 252.073 81.0416C252.431 80.6721 252.856 80.3764 253.348 80.1547C253.841 79.933 254.346 79.8221 254.864 79.8221C255.603 79.8221 256.219 79.9699 256.711 80.2656C257.216 80.5612 257.592 81.0047 257.838 81.5959C258.097 82.1872 258.226 82.9263 258.226 83.8132V89.763H255.954V83.9795C255.954 83.4868 255.886 83.0803 255.75 82.76C255.615 82.4274 255.406 82.1872 255.122 82.0394C254.839 81.8793 254.494 81.8054 254.087 81.8177C253.755 81.8177 253.447 81.8731 253.164 81.984C252.893 82.0825 252.652 82.2303 252.443 82.4274C252.246 82.6122 252.086 82.8278 251.963 83.0741C251.852 83.3205 251.796 83.5915 251.796 83.8872V89.763H250.669C250.447 89.763 250.238 89.763 250.041 89.763C249.856 89.763 249.684 89.763 249.524 89.763Z" fill="#375654"/>
<defs>
<clipPath id="clip0_1_764">
<rect width="294.319" height="67.526" fill="white" transform="translate(0 0.237)"/>
</clipPath>
</defs>
</svg>
