<?xml version="1.0" encoding="UTF-8"?>
<svg id="Layer_1" data-name="Layer 1" xmlns="http://www.w3.org/2000/svg" viewBox="0 0 1007.52 276.6">
  <path d="M504.42,276.25c-66.66,0-133.32,.03-199.97,0-58.32-.04-116.65,.22-174.97-.38-32.2-.33-60.37-12.51-84.32-33.79C19.33,219.15,3.52,190.22,.65,155.87-4.32,96.52,19.33,50.61,70,19.19,94.31,4.13,121.4-.35,149.7,.02c31.25,.42,62.52,.02,93.77,.06,32.07,.04,64.13,.25,96.2,.27,55.01,.04,110.03-.03,165.04-.02,61.97,.01,123.93,.07,185.9,.1,59.66,.03,119.33-.18,178.99,.14,35.29,.19,65.95,13.12,91.91,36.73,25.19,22.9,40.1,51.57,44.72,85.28,7.89,57.57-21.42,114.21-75.1,140.39-18.89,9.21-38.88,13.55-59.79,13.58-61.99,.08-123.98,.03-185.98,.03h-180.96c0-.11,0-.23,0-.34Zm159.01-89.85c0-2.35,0-4.12,0-5.9,0-15.49-.34-30.99,.17-46.47,.2-5.99,1.43-12.3,3.8-17.77,2.95-6.81,9.8-8.01,16.61-7.34,7.53,.75,11.19,3.9,12.73,11.18,.85,4.02,.96,8.25,.98,12.38,.1,16.32-.02,32.65,.13,48.97,.01,1.63,1.23,4.64,1.99,4.67,7.73,.35,15.48,.21,23.32,.21,0-24.28,.51-47.76-.23-71.21-.33-10.5-5.91-19.08-16.24-23.3-14.39-5.89-32.95-4.93-44.4,9.7-.61,.78-1.1,1.67-2.06,3.15-6.3-12.16-16.05-16.05-28.07-16.12-12.24-.07-21.54,5.43-29.94,15.91v-13.28h-23.99c-.18,.89-.42,1.52-.42,2.15-.03,29.65,0,59.3-.09,88.94,0,2.94,1.25,3.73,3.91,3.67,4.66-.11,9.33,.02,13.99-.03,8.75-.09,8.12,1.11,8.17-7.94,.09-16.65-.03-33.31,.4-49.96,.1-3.81,1.53-7.86,3.33-11.28,3.46-6.57,11.75-9.47,19.48-7.52,7.09,1.79,10.23,6.16,10.62,14.84,.1,2.33,.13,4.66,.13,6.99,.01,16.82-.07,33.65,.12,50.47,.02,1.63,1.58,4.59,2.54,4.64,7.43,.39,14.9,.21,23,.21Zm-187.04-66.49c8.28,0,15.9,.08,23.53-.1,.97-.02,2.35-1.13,2.8-2.09,5.27-11.27,15.95-15.31,27.46-10.41,5.01,2.13,6.78,6.16,6.97,11.12,.19,4.88-2.8,7.62-7.03,9.2-1.7,.63-3.5,1.05-5.29,1.37-10.94,1.96-22.12,3.06-32.78,6.01-13.47,3.72-19.14,13.23-18.47,27.68,.58,12.58,8.1,22.14,20.72,24.82,14.88,3.15,29.17,1.82,41.52-8.38,.58-.48,1.4-.67,1.38-.67,1.62,2.84,2.85,7.39,4.54,7.57,7.67,.79,15.46,.35,23.28,.35-.68-5.11-1.7-9.5-1.77-13.92-.3-18.82-.42-37.64-.41-56.46,0-10.56-4.18-18.87-14-22.7-18.37-7.17-37.14-7.44-55.38,.61-10.55,4.66-16.13,13.4-17.07,26Zm351.87,24.85c0-4.11,.28-7.43-.04-10.7-4.31-44.14-43.03-54.37-70.84-39.67-23.73,12.54-31.6,49.2-16.3,73.37,10.14,16.02,29.81,24,50.12,20.34,18.35-3.31,31.36-14.81,34.76-31.14-6.69,0-13.3-.09-19.89,.09-1.02,.03-2.02,1.26-3,1.99-4.18,3.1-7.92,7.45-12.6,9.1-16.95,5.96-32.79-6.21-30.6-23.38h68.39Zm-561.58,43.89c29.8,.07,49.47-19.52,49.56-49.34,.1-31.3-19.26-51.18-49.9-51.24-28.78-.05-48.68,20.6-48.69,50.56-.02,29.9,19.65,49.96,49.03,50.03Zm-122.67-3.06c.1-1.79,.25-3.24,.26-4.7,.02-15.65-.33-31.32,.19-46.95,.19-5.82,1.49-12,3.93-17.24,3.81-8.21,11.87-8.74,19.81-8.02,6.41,.58,10.6,4.47,12.3,11.9,.92,4,1.17,8.23,1.21,12.35,.13,16.15,.07,32.3,.04,48.46,0,2.47-.1,4.67,3.47,4.59,6.32-.15,12.66-.12,18.98-.02,2.7,.04,3.39-1.27,3.38-3.68-.15-21.48,.11-42.97-.51-64.43-.28-9.71-3.58-18.86-12.46-24.39-12.42-7.74-36.12-8.59-48.53,7.47-.67,.86-.95,2.03-1.41,3.06-.46-.39-.93-.77-1.39-1.16-.18-3.89-.36-7.78-.54-11.56h-23.95v94.33h25.23Zm319.02,.03c0-23.15,.44-45.78-.2-68.39-.29-10.04-4.04-19.48-13.75-24.61-13.11-6.92-34.72-7.13-47.01,7.96-.84,1.03-1.81,1.94-3.81,4.06v-13.4h-23.43v94.33h25.42c0-16.49-.07-32.61,.05-48.73,.03-4.3,.31-8.66,1.05-12.9,1.93-10.99,8.82-15.98,20.81-15.45,9.03,.4,14.09,5.8,15.26,16.5,.29,2.64,.22,5.32,.23,7.99,.02,15.66,0,31.32,0,46.98v5.65h25.38Zm446.75-61.94c-.07-20.26-15.27-35.58-35.26-35.53-20.32,.05-35.93,15.5-35.95,35.57-.01,20.31,15.35,35.74,35.64,35.81,20.18,.06,35.64-15.52,35.57-35.85Z"/>
  <path d="M536.27,140.87c0,4.97,.8,10.54-.16,15.78-2.43,13.27-21.25,20.18-32.32,12.26-6.8-4.86-6.47-15.87,.94-20.29,3.19-1.9,7-2.98,10.67-3.81,6.9-1.55,13.9-2.65,20.87-3.94Z"/>
  <path d="M802,127.79h-42.4c.33-11.04,8.54-19.53,19.13-20.14,13.79-.79,21.16,5.42,23.27,20.14Z"/>
  <path d="M291.33,138.38c-1.32,5.93-2.01,11.95-4.05,17.48-2.92,7.94-8.94,12.63-17.7,13.19-13.45,.86-21.38-4.84-24.52-18.15-2.45-10.42-2.23-20.82,2.1-30.81,4.01-9.25,11.44-12.91,21.23-12.46,9.31,.43,15.88,5.02,18.98,13.65,1.94,5.4,2.64,11.24,3.94,17.1Z"/>
  <path d="M846.17,123.78c.05-17.2,11.97-29.79,28.2-29.79,16.38,0,28.27,12.77,28.2,30.3-.07,16.85-12.07,29.48-27.99,29.47-16.75-.01-28.46-12.37-28.41-29.98Zm44.4,19.58c-3.5-5.5-6.82-10.73-10.25-16.12,1-.33,1.46-.49,1.93-.64,6.36-2.04,8.42-4.88,8.16-11.28-.22-5.63-2.82-8.95-9.34-9.64-6.5-.69-13.13-.15-20.29-.15,0,11.41,.13,22.69-.06,33.96-.08,4.78,2.03,5.38,6.44,3.89v-15.39c4.68-1.75,7.48-.56,9.48,3.42,1.63,3.26,3.97,6.16,5.63,9.4,1.83,3.56,4.38,3.97,8.31,2.56Z"/>
  <path d="M867.79,121.8c-.31-.85-.4-.99-.41-1.15-1.01-11.29,1.34-13.37,12.22-10,1.97,.61,4.68,3.68,4.46,5.26-.29,2.14-2.78,5.08-4.86,5.63-3.55,.93-7.51,.26-11.4,.26Z"/>
</svg>